<mxfile host="app.diagrams.net" modified="2024-01-31T16:27:54.605Z" agent="Mozilla/5.0 (Windows NT 10.0; Win64; x64; rv:122.0) Gecko/20100101 Firefox/122.0" etag="JzdKrohjJo1uMuLjg-nn" version="23.0.2" type="device">
  <diagram name="Página-1" id="UKqx2wUc2Zl9v7fyA2Tz">
    <mxGraphModel dx="1594" dy="710" grid="1" gridSize="10" guides="1" tooltips="1" connect="1" arrows="1" fold="1" page="1" pageScale="1" pageWidth="827" pageHeight="1169" math="0" shadow="0">
      <root>
        <mxCell id="0" />
        <mxCell id="1" parent="0" />
        <mxCell id="lb1jEGPWHhScYuzUH2o1-2" value="" style="ellipse;html=1;shape=startState;fillColor=#000000;strokeColor=#2B0000;" vertex="1" parent="1">
          <mxGeometry x="186" y="105" width="30" height="30" as="geometry" />
        </mxCell>
        <mxCell id="lb1jEGPWHhScYuzUH2o1-3" value="" style="ellipse;html=1;shape=endState;fillColor=#000000;strokeColor=#000000;" vertex="1" parent="1">
          <mxGeometry x="1235" y="105" width="30" height="30" as="geometry" />
        </mxCell>
        <mxCell id="lb1jEGPWHhScYuzUH2o1-4" value="" style="endArrow=classic;html=1;rounded=0;entryX=0.5;entryY=0;entryDx=0;entryDy=0;" edge="1" parent="1" source="lb1jEGPWHhScYuzUH2o1-2" target="lb1jEGPWHhScYuzUH2o1-6">
          <mxGeometry width="50" height="50" relative="1" as="geometry">
            <mxPoint x="270" y="400" as="sourcePoint" />
            <mxPoint x="320" y="350" as="targetPoint" />
          </mxGeometry>
        </mxCell>
        <mxCell id="lb1jEGPWHhScYuzUH2o1-10" style="edgeStyle=orthogonalEdgeStyle;rounded=0;orthogonalLoop=1;jettySize=auto;html=1;" edge="1" parent="1" source="lb1jEGPWHhScYuzUH2o1-6" target="lb1jEGPWHhScYuzUH2o1-9">
          <mxGeometry relative="1" as="geometry" />
        </mxCell>
        <mxCell id="lb1jEGPWHhScYuzUH2o1-12" style="edgeStyle=orthogonalEdgeStyle;rounded=0;orthogonalLoop=1;jettySize=auto;html=1;" edge="1" parent="1" source="lb1jEGPWHhScYuzUH2o1-6" target="lb1jEGPWHhScYuzUH2o1-11">
          <mxGeometry relative="1" as="geometry" />
        </mxCell>
        <mxCell id="lb1jEGPWHhScYuzUH2o1-6" value="&lt;div&gt;A Casa do Usuário Ativo é ISIQV ou não?&lt;/div&gt;" style="rhombus;whiteSpace=wrap;html=1;" vertex="1" parent="1">
          <mxGeometry x="124" y="280" width="154" height="80" as="geometry" />
        </mxCell>
        <mxCell id="lb1jEGPWHhScYuzUH2o1-7" value="Não" style="text;html=1;strokeColor=none;fillColor=none;align=center;verticalAlign=middle;whiteSpace=wrap;rounded=0;" vertex="1" parent="1">
          <mxGeometry x="260" y="280" width="60" height="30" as="geometry" />
        </mxCell>
        <mxCell id="lb1jEGPWHhScYuzUH2o1-8" value="Sim" style="text;html=1;strokeColor=none;fillColor=none;align=center;verticalAlign=middle;whiteSpace=wrap;rounded=0;" vertex="1" parent="1">
          <mxGeometry x="140" y="360" width="60" height="30" as="geometry" />
        </mxCell>
        <mxCell id="lb1jEGPWHhScYuzUH2o1-15" style="edgeStyle=orthogonalEdgeStyle;rounded=0;orthogonalLoop=1;jettySize=auto;html=1;" edge="1" parent="1" source="lb1jEGPWHhScYuzUH2o1-9" target="lb1jEGPWHhScYuzUH2o1-13">
          <mxGeometry relative="1" as="geometry" />
        </mxCell>
        <mxCell id="lb1jEGPWHhScYuzUH2o1-9" value="A lista de usuários do CIS e ISI são obtidas" style="rounded=1;whiteSpace=wrap;html=1;" vertex="1" parent="1">
          <mxGeometry x="141" y="450" width="120" height="60" as="geometry" />
        </mxCell>
        <mxCell id="lb1jEGPWHhScYuzUH2o1-14" style="edgeStyle=orthogonalEdgeStyle;rounded=0;orthogonalLoop=1;jettySize=auto;html=1;entryX=0;entryY=0.5;entryDx=0;entryDy=0;" edge="1" parent="1" source="lb1jEGPWHhScYuzUH2o1-11" target="lb1jEGPWHhScYuzUH2o1-13">
          <mxGeometry relative="1" as="geometry">
            <Array as="points">
              <mxPoint x="590" y="320" />
              <mxPoint x="590" y="480" />
            </Array>
          </mxGeometry>
        </mxCell>
        <mxCell id="lb1jEGPWHhScYuzUH2o1-11" value="A lista de usuários da casa do usuário ativo são obtidas" style="rounded=1;whiteSpace=wrap;html=1;" vertex="1" parent="1">
          <mxGeometry x="354" y="290" width="120" height="60" as="geometry" />
        </mxCell>
        <mxCell id="lb1jEGPWHhScYuzUH2o1-19" style="edgeStyle=orthogonalEdgeStyle;rounded=0;orthogonalLoop=1;jettySize=auto;html=1;" edge="1" parent="1" source="lb1jEGPWHhScYuzUH2o1-13" target="lb1jEGPWHhScYuzUH2o1-16">
          <mxGeometry relative="1" as="geometry" />
        </mxCell>
        <mxCell id="lb1jEGPWHhScYuzUH2o1-13" value="Itera-se sobre os usuários obtidos" style="rounded=1;whiteSpace=wrap;html=1;" vertex="1" parent="1">
          <mxGeometry x="530" y="450" width="120" height="60" as="geometry" />
        </mxCell>
        <mxCell id="lb1jEGPWHhScYuzUH2o1-27" style="edgeStyle=orthogonalEdgeStyle;rounded=0;orthogonalLoop=1;jettySize=auto;html=1;" edge="1" parent="1" source="lb1jEGPWHhScYuzUH2o1-16" target="lb1jEGPWHhScYuzUH2o1-26">
          <mxGeometry relative="1" as="geometry" />
        </mxCell>
        <mxCell id="lb1jEGPWHhScYuzUH2o1-16" value="Obtém-se a participação do usuário" style="rounded=1;whiteSpace=wrap;html=1;" vertex="1" parent="1">
          <mxGeometry x="740" y="450" width="120" height="60" as="geometry" />
        </mxCell>
        <mxCell id="lb1jEGPWHhScYuzUH2o1-24" value="" style="swimlane;startSize=0;" vertex="1" parent="1">
          <mxGeometry x="61" y="200" width="1509" height="780" as="geometry" />
        </mxCell>
        <mxCell id="lb1jEGPWHhScYuzUH2o1-25" value="" style="swimlane;startSize=0;" vertex="1" parent="lb1jEGPWHhScYuzUH2o1-24">
          <mxGeometry x="659" y="470" width="801" height="270" as="geometry">
            <mxRectangle x="659" y="550" width="50" height="40" as="alternateBounds" />
          </mxGeometry>
        </mxCell>
        <mxCell id="lb1jEGPWHhScYuzUH2o1-29" style="edgeStyle=orthogonalEdgeStyle;rounded=0;orthogonalLoop=1;jettySize=auto;html=1;" edge="1" parent="lb1jEGPWHhScYuzUH2o1-25" source="lb1jEGPWHhScYuzUH2o1-26" target="lb1jEGPWHhScYuzUH2o1-28">
          <mxGeometry relative="1" as="geometry" />
        </mxCell>
        <mxCell id="lb1jEGPWHhScYuzUH2o1-26" value="Obtém-se as prospecções do usuário" style="rounded=1;whiteSpace=wrap;html=1;" vertex="1" parent="lb1jEGPWHhScYuzUH2o1-25">
          <mxGeometry x="20" y="110" width="120" height="60" as="geometry" />
        </mxCell>
        <mxCell id="lb1jEGPWHhScYuzUH2o1-31" style="edgeStyle=orthogonalEdgeStyle;rounded=0;orthogonalLoop=1;jettySize=auto;html=1;" edge="1" parent="lb1jEGPWHhScYuzUH2o1-25" source="lb1jEGPWHhScYuzUH2o1-28" target="lb1jEGPWHhScYuzUH2o1-30">
          <mxGeometry relative="1" as="geometry" />
        </mxCell>
        <mxCell id="lb1jEGPWHhScYuzUH2o1-28" value="Periodiza-se as prospecções de acordo com o filtro" style="rounded=1;whiteSpace=wrap;html=1;" vertex="1" parent="lb1jEGPWHhScYuzUH2o1-25">
          <mxGeometry x="180" y="110" width="120" height="60" as="geometry" />
        </mxCell>
        <mxCell id="lb1jEGPWHhScYuzUH2o1-33" style="edgeStyle=orthogonalEdgeStyle;rounded=0;orthogonalLoop=1;jettySize=auto;html=1;" edge="1" parent="lb1jEGPWHhScYuzUH2o1-25" source="lb1jEGPWHhScYuzUH2o1-30" target="lb1jEGPWHhScYuzUH2o1-32">
          <mxGeometry relative="1" as="geometry" />
        </mxCell>
        <mxCell id="lb1jEGPWHhScYuzUH2o1-30" value="Pesquisador possui 0 prospecções?" style="rhombus;whiteSpace=wrap;html=1;" vertex="1" parent="lb1jEGPWHhScYuzUH2o1-25">
          <mxGeometry x="350" y="100" width="120" height="80" as="geometry" />
        </mxCell>
        <mxCell id="lb1jEGPWHhScYuzUH2o1-35" style="edgeStyle=orthogonalEdgeStyle;rounded=0;orthogonalLoop=1;jettySize=auto;html=1;" edge="1" parent="lb1jEGPWHhScYuzUH2o1-25" source="lb1jEGPWHhScYuzUH2o1-32" target="lb1jEGPWHhScYuzUH2o1-34">
          <mxGeometry relative="1" as="geometry" />
        </mxCell>
        <mxCell id="lb1jEGPWHhScYuzUH2o1-32" value="As participações individuais são atribuidas" style="rounded=1;whiteSpace=wrap;html=1;" vertex="1" parent="lb1jEGPWHhScYuzUH2o1-25">
          <mxGeometry x="530" y="110" width="120" height="60" as="geometry" />
        </mxCell>
        <mxCell id="lb1jEGPWHhScYuzUH2o1-37" style="edgeStyle=orthogonalEdgeStyle;rounded=0;orthogonalLoop=1;jettySize=auto;html=1;" edge="1" parent="lb1jEGPWHhScYuzUH2o1-25" source="lb1jEGPWHhScYuzUH2o1-34" target="lb1jEGPWHhScYuzUH2o1-36">
          <mxGeometry relative="1" as="geometry" />
        </mxCell>
        <mxCell id="lb1jEGPWHhScYuzUH2o1-34" value="As quantidades de prospecção são atribuidas" style="rounded=1;whiteSpace=wrap;html=1;" vertex="1" parent="lb1jEGPWHhScYuzUH2o1-25">
          <mxGeometry x="530" y="200" width="120" height="60" as="geometry" />
        </mxCell>
        <mxCell id="lb1jEGPWHhScYuzUH2o1-39" style="edgeStyle=orthogonalEdgeStyle;rounded=0;orthogonalLoop=1;jettySize=auto;html=1;" edge="1" parent="lb1jEGPWHhScYuzUH2o1-25" source="lb1jEGPWHhScYuzUH2o1-36" target="lb1jEGPWHhScYuzUH2o1-38">
          <mxGeometry relative="1" as="geometry" />
        </mxCell>
        <mxCell id="lb1jEGPWHhScYuzUH2o1-36" value="Os valores financeiros são atribuídos" style="rounded=1;whiteSpace=wrap;html=1;" vertex="1" parent="lb1jEGPWHhScYuzUH2o1-25">
          <mxGeometry x="670" y="200" width="120" height="60" as="geometry" />
        </mxCell>
        <mxCell id="lb1jEGPWHhScYuzUH2o1-38" value="O valor da assertividade é atribuído" style="rounded=1;whiteSpace=wrap;html=1;" vertex="1" parent="lb1jEGPWHhScYuzUH2o1-25">
          <mxGeometry x="670" y="110" width="120" height="60" as="geometry" />
        </mxCell>
        <mxCell id="lb1jEGPWHhScYuzUH2o1-44" value="Retorna-se nulo" style="rounded=1;whiteSpace=wrap;html=1;" vertex="1" parent="lb1jEGPWHhScYuzUH2o1-25">
          <mxGeometry x="350" y="20" width="120" height="60" as="geometry" />
        </mxCell>
        <mxCell id="lb1jEGPWHhScYuzUH2o1-45" style="edgeStyle=orthogonalEdgeStyle;rounded=0;orthogonalLoop=1;jettySize=auto;html=1;" edge="1" parent="lb1jEGPWHhScYuzUH2o1-25" source="lb1jEGPWHhScYuzUH2o1-30" target="lb1jEGPWHhScYuzUH2o1-44">
          <mxGeometry relative="1" as="geometry" />
        </mxCell>
        <mxCell id="lb1jEGPWHhScYuzUH2o1-51" style="edgeStyle=orthogonalEdgeStyle;rounded=0;orthogonalLoop=1;jettySize=auto;html=1;entryX=1;entryY=0.5;entryDx=0;entryDy=0;" edge="1" parent="lb1jEGPWHhScYuzUH2o1-24" source="lb1jEGPWHhScYuzUH2o1-17" target="lb1jEGPWHhScYuzUH2o1-48">
          <mxGeometry relative="1" as="geometry">
            <Array as="points">
              <mxPoint x="1389" y="200" />
            </Array>
          </mxGeometry>
        </mxCell>
        <mxCell id="lb1jEGPWHhScYuzUH2o1-17" value="A participação é adicionada a lista" style="rounded=1;whiteSpace=wrap;html=1;" vertex="1" parent="lb1jEGPWHhScYuzUH2o1-24">
          <mxGeometry x="1329" y="395" width="120" height="60" as="geometry" />
        </mxCell>
        <mxCell id="lb1jEGPWHhScYuzUH2o1-40" style="edgeStyle=orthogonalEdgeStyle;rounded=0;orthogonalLoop=1;jettySize=auto;html=1;" edge="1" parent="lb1jEGPWHhScYuzUH2o1-24" source="lb1jEGPWHhScYuzUH2o1-38" target="lb1jEGPWHhScYuzUH2o1-17">
          <mxGeometry relative="1" as="geometry" />
        </mxCell>
        <mxCell id="lb1jEGPWHhScYuzUH2o1-42" value="A listagem de participações é retornada" style="rounded=1;whiteSpace=wrap;html=1;" vertex="1" parent="lb1jEGPWHhScYuzUH2o1-24">
          <mxGeometry x="1129" y="40" width="120" height="60" as="geometry" />
        </mxCell>
        <mxCell id="lb1jEGPWHhScYuzUH2o1-52" style="edgeStyle=orthogonalEdgeStyle;rounded=0;orthogonalLoop=1;jettySize=auto;html=1;" edge="1" parent="lb1jEGPWHhScYuzUH2o1-24" source="lb1jEGPWHhScYuzUH2o1-44" target="lb1jEGPWHhScYuzUH2o1-48">
          <mxGeometry relative="1" as="geometry" />
        </mxCell>
        <mxCell id="lb1jEGPWHhScYuzUH2o1-49" style="edgeStyle=orthogonalEdgeStyle;rounded=0;orthogonalLoop=1;jettySize=auto;html=1;" edge="1" parent="lb1jEGPWHhScYuzUH2o1-24" source="lb1jEGPWHhScYuzUH2o1-48" target="lb1jEGPWHhScYuzUH2o1-42">
          <mxGeometry relative="1" as="geometry" />
        </mxCell>
        <mxCell id="lb1jEGPWHhScYuzUH2o1-48" value="Iteração dos usuários terminou?" style="rhombus;whiteSpace=wrap;html=1;" vertex="1" parent="lb1jEGPWHhScYuzUH2o1-24">
          <mxGeometry x="1149" y="160" width="80" height="80" as="geometry" />
        </mxCell>
        <mxCell id="lb1jEGPWHhScYuzUH2o1-46" style="edgeStyle=orthogonalEdgeStyle;rounded=0;orthogonalLoop=1;jettySize=auto;html=1;" edge="1" parent="1" source="lb1jEGPWHhScYuzUH2o1-17" target="lb1jEGPWHhScYuzUH2o1-13">
          <mxGeometry relative="1" as="geometry" />
        </mxCell>
        <mxCell id="lb1jEGPWHhScYuzUH2o1-50" style="edgeStyle=orthogonalEdgeStyle;rounded=0;orthogonalLoop=1;jettySize=auto;html=1;" edge="1" parent="1" source="lb1jEGPWHhScYuzUH2o1-48" target="lb1jEGPWHhScYuzUH2o1-13">
          <mxGeometry relative="1" as="geometry" />
        </mxCell>
        <mxCell id="lb1jEGPWHhScYuzUH2o1-53" style="edgeStyle=orthogonalEdgeStyle;rounded=0;orthogonalLoop=1;jettySize=auto;html=1;" edge="1" parent="1" source="lb1jEGPWHhScYuzUH2o1-42" target="lb1jEGPWHhScYuzUH2o1-3">
          <mxGeometry relative="1" as="geometry" />
        </mxCell>
      </root>
    </mxGraphModel>
  </diagram>
</mxfile>
